<svg width="234" height="234" viewBox="0 0 234 234" fill="none" xmlns="http://www.w3.org/2000/svg">
<g clip-path="url(#clip0_3169_111)">
<path fill-rule="evenodd" clip-rule="evenodd" d="M60 66.441C18.56 111.119 40.3101 156.759 40.3101 156.759L58.23 145.727V198L8 178.102L24.1599 166.726C-0.760088 94.898 47.71 54 47.71 54L60 66.441Z" stroke="#151515" stroke-width="8.02083" stroke-miterlimit="10" stroke-linecap="round" stroke-linejoin="round"/>
<path fill-rule="evenodd" clip-rule="evenodd" d="M105 228.643C105 228.643 166.23 242.851 207.35 179.329L226 185.437L211.27 133L170.38 164.641L189.81 172.362C189.81 172.362 167.54 217.353 107.33 211.21L105 228.643Z" stroke="#151515" stroke-width="8.02083" stroke-miterlimit="10" stroke-linecap="round" stroke-linejoin="round"/>
<path fill-rule="evenodd" clip-rule="evenodd" d="M217 102.483C217 102.483 206.42 39.31 132.12 24.931L130.51 5L88 39.069L132.9 65.448L132.49 44.138C132.49 44.138 182.58 48 200.1 107L217 102.483Z" stroke="#151515" stroke-width="8.02083" stroke-miterlimit="10" stroke-linecap="round" stroke-linejoin="round"/>
</g>
<defs>
<clipPath id="clip0_3169_111">
<rect width="234" height="234" fill="white"/>
</clipPath>
</defs>
</svg>
