<svg width="228" height="228" viewBox="0 0 228 228" fill="none" xmlns="http://www.w3.org/2000/svg">
<g clip-path="url(#clip0_3169_102)">
<path d="M228 34.2V3.8C228 3.30125 227.902 2.80732 227.712 2.34642C227.521 1.88552 227.242 1.46668 226.889 1.11381C226.537 0.760942 226.118 0.480959 225.658 0.28985C225.197 0.0987414 224.703 0.000250177 224.204 7.43017e-07H193.8V7.6H215.027L124.461 98.1654C122.441 96.8183 120.179 95.874 117.8 95.3843V12.9737L134.113 29.2871L139.487 23.9134L116.687 1.1134C116.334 0.760554 115.915 0.480619 115.455 0.289585C114.994 0.0985504 114.5 0.000157527 114.001 2.52e-05C113.502 -0.000107127 113.008 0.0980237 112.547 0.288814C112.086 0.479604 111.668 0.759316 111.315 1.11198L111.313 1.1134L88.5134 23.9134L93.8871 29.2866L110.2 12.9737V95.3843C107.821 95.8743 105.56 96.8188 103.539 98.1659L12.9737 7.6H34.2V7.43017e-07H3.8C3.30125 -0.000311234 2.80732 0.0976241 2.34642 0.288214C1.88552 0.478804 1.46668 0.758316 1.11381 1.11079C0.760942 1.46326 0.480959 1.88179 0.28985 2.34247C0.0987414 2.80316 0.000250177 3.29697 7.43017e-07 3.79573V34.2H7.6V12.9737L98.1654 103.539C96.8184 105.56 95.8741 107.821 95.3843 110.2H12.9737L29.2871 93.8866L23.9134 88.5134L1.1134 111.313C0.760554 111.666 0.480619 112.085 0.289585 112.545C0.0985504 113.006 0.000157527 113.5 2.52e-05 113.999C-0.000107127 114.498 0.0980237 114.992 0.288814 115.453C0.479604 115.914 0.759316 116.332 1.11198 116.685L1.1134 116.687L23.9134 139.487L29.2866 134.113L12.9737 117.8H95.3843C95.8743 120.179 96.8188 122.44 98.1659 124.461L7.6 215.027V193.8H7.43017e-07V224.2C-0.000311234 224.699 0.0976241 225.193 0.288214 225.654C0.478804 226.114 0.758316 226.533 1.11079 226.886C1.46326 227.239 1.88179 227.519 2.34247 227.71C2.80316 227.901 3.29697 228 3.79573 228H34.2V220.4H12.9737L103.539 129.835C105.56 131.182 107.821 132.126 110.2 132.616V215.026L93.8866 198.713L88.5134 204.087L111.313 226.887C112.026 227.599 112.992 228 113.999 228C115.007 228 115.973 227.6 116.686 226.888L116.687 226.887L139.487 204.087L134.113 198.713L117.8 215.027V132.616C120.179 132.126 122.44 131.182 124.461 129.835L215.027 220.4H193.8V228H224.2C224.699 228 225.193 227.902 225.654 227.712C226.114 227.521 226.533 227.242 226.886 226.889C227.239 226.537 227.519 226.118 227.71 225.658C227.901 225.197 228 224.703 228 224.204V193.8H220.4V215.027L129.835 124.461C131.182 122.44 132.126 120.179 132.616 117.8H215.026L198.713 134.113L204.087 139.487L226.887 116.687C227.239 116.334 227.519 115.915 227.71 115.455C227.901 114.994 228 114.5 228 114.001C228 113.502 227.902 113.008 227.711 112.547C227.52 112.086 227.241 111.668 226.888 111.315L226.887 111.313L204.087 88.5134L198.713 93.8871L215.027 110.2H132.616C132.126 107.821 131.182 105.56 129.835 103.539L220.4 12.9737V34.2H228ZM114 125.4C107.704 125.4 102.6 120.296 102.6 114C102.6 107.704 107.704 102.6 114 102.6C120.296 102.6 125.4 107.704 125.4 114C125.393 120.293 120.293 125.393 114 125.4Z" fill="#151515"/>
</g>
<defs>
<clipPath id="clip0_3169_102">
<rect width="228" height="228" fill="white"/>
</clipPath>
</defs>
</svg>
