<svg width="234" height="229" viewBox="0 0 234 229" fill="none" xmlns="http://www.w3.org/2000/svg">
<path fill-rule="evenodd" clip-rule="evenodd" d="M152 111C152 128.67 137.45 143 119.5 143C101.551 143 87 128.67 87 111C87 93.33 101.551 79 119.5 79C137.45 79 152 93.33 152 111Z" stroke="#151515" stroke-width="8.02083" stroke-miterlimit="10" stroke-linecap="round" stroke-linejoin="round"/>
<path fill-rule="evenodd" clip-rule="evenodd" d="M139 111.5C139 122.27 130.27 131 119.5 131C108.73 131 100 122.27 100 111.5C100 100.73 108.73 92 119.5 92C130.27 92 139 100.73 139 111.5Z" stroke="#151515" stroke-width="8.02083" stroke-miterlimit="10" stroke-linecap="round" stroke-linejoin="round"/>
<path d="M88.3472 121.61C70.6352 123.5 53.2222 127.57 36.4942 133.72C10.6782 143.54 3.28026 130.34 6.83626 107.04C10.3933 83.7298 16.3623 40.7238 57.2293 54.7518C98.0953 68.7798 98.0003 84.2998 98.0003 84.2998" stroke="#151515" stroke-width="8.02083" stroke-miterlimit="10" stroke-linecap="round" stroke-linejoin="round"/>
<path d="M145.749 133C156.536 147.35 169.029 160.33 182.953 171.67C204.776 188.99 197.182 202.21 175.231 211.07C153.279 219.94 113.062 236.94 104.09 194.3C95.1166 151.66 108.544 143.79 108.544 143.79" stroke="#151515" stroke-width="8.02083" stroke-miterlimit="10" stroke-linecap="round" stroke-linejoin="round"/>
<path d="M129 79.5996C137.959 64.1296 144.993 47.6226 149.946 30.4566C157.269 3.75355 172.363 5.6316 189.151 22.1186C205.94 38.6046 237.31 68.7796 201.687 93.6696C166.063 118.56 153.527 109.33 153.527 109.33" stroke="#151515" stroke-width="8.02083" stroke-miterlimit="10" stroke-linecap="round" stroke-linejoin="round"/>
<path d="M93 216C64.705 208.98 40.521 190.93 26 166" stroke="#151515" stroke-width="8.02083" stroke-miterlimit="10" stroke-linecap="round" stroke-linejoin="round"/>
<path d="M224.364 93C225.464 99.37 226.012 105.83 226 112.31C226.016 128.47 222.597 144.43 216 159" stroke="#151515" stroke-width="8.02083" stroke-miterlimit="10" stroke-linecap="round" stroke-linejoin="round"/>
<path d="M47 33.0001C66.813 15.5911 92.597 5.96609 119.327 6.00009C122.551 6.00009 125.776 6.00007 129 6.40707" stroke="#151515" stroke-width="8.02083" stroke-miterlimit="10" stroke-linecap="round" stroke-linejoin="round"/>
<path d="M90 188C82.893 185.61 76.16 182.25 70 178" stroke="#151515" stroke-width="8.02083" stroke-miterlimit="10" stroke-linecap="round" stroke-linejoin="round"/>
<path d="M199.001 113C198.991 118.04 198.321 123.06 197 128" stroke="#151515" stroke-width="8.02083" stroke-miterlimit="10" stroke-linecap="round" stroke-linejoin="round"/>
<path d="M75 47C81.462 42.656 88.539 39.286 96 37" stroke="#151515" stroke-width="8.02083" stroke-miterlimit="10" stroke-linecap="round" stroke-linejoin="round"/>
</svg>
